<mxfile>
    <diagram id="zRiZhJNBTAvJ8HZTbkJA" name="Page-1">
        <mxGraphModel dx="1167" dy="790" grid="1" gridSize="10" guides="1" tooltips="1" connect="1" arrows="1" fold="1" page="1" pageScale="1" pageWidth="1169" pageHeight="827" background="#283618" math="0" shadow="0">
            <root>
                <mxCell id="0"/>
                <mxCell id="1" parent="0"/>
                <mxCell id="145" style="edgeStyle=orthogonalEdgeStyle;orthogonalLoop=1;jettySize=auto;html=1;entryX=0.5;entryY=1;entryDx=0;entryDy=0;labelBackgroundColor=#283618;strokeColor=#DDA15E;fontColor=#FEFAE0;" edge="1" parent="1" source="14" target="43">
                    <mxGeometry relative="1" as="geometry"/>
                </mxCell>
                <mxCell id="147" style="edgeStyle=orthogonalEdgeStyle;curved=0;rounded=1;sketch=0;orthogonalLoop=1;jettySize=auto;html=1;entryX=0;entryY=0.5;entryDx=0;entryDy=0;fontColor=#FEFAE0;strokeColor=#DDA15E;fillColor=#BC6C25;endArrow=diamondThin;endFill=0;endSize=10;startSize=10;" edge="1" parent="1" source="14" target="86">
                    <mxGeometry relative="1" as="geometry">
                        <Array as="points">
                            <mxPoint x="640" y="90"/>
                            <mxPoint x="640" y="249"/>
                        </Array>
                    </mxGeometry>
                </mxCell>
                <mxCell id="14" value="Map" style="swimlane;fontStyle=0;childLayout=stackLayout;horizontal=1;startSize=26;fillColor=none;horizontalStack=0;resizeParent=1;resizeParentMax=0;resizeLast=0;collapsible=1;marginBottom=0;strokeColor=#DDA15E;fontColor=#FEFAE0;fontFamily=Lucida Console;align=center;rounded=1;" parent="1" vertex="1">
                    <mxGeometry x="410" y="80" width="180" height="686" as="geometry"/>
                </mxCell>
                <mxCell id="15" value="- grid" style="text;strokeColor=none;fillColor=none;align=left;verticalAlign=top;spacingLeft=4;spacingRight=4;overflow=hidden;rotatable=0;points=[[0,0.5],[1,0.5]];portConstraint=eastwest;fontColor=#FEFAE0;fontFamily=Lucida Console;rounded=1;" parent="14" vertex="1">
                    <mxGeometry y="26" width="180" height="26" as="geometry"/>
                </mxCell>
                <mxCell id="16" value="- constructors" style="text;strokeColor=none;fillColor=none;align=left;verticalAlign=top;spacingLeft=4;spacingRight=4;overflow=hidden;rotatable=0;points=[[0,0.5],[1,0.5]];portConstraint=eastwest;fontColor=#FEFAE0;fontFamily=Lucida Console;rounded=1;" parent="14" vertex="1">
                    <mxGeometry y="52" width="180" height="26" as="geometry"/>
                </mxCell>
                <mxCell id="17" value="- fillers" style="text;strokeColor=none;fillColor=none;align=left;verticalAlign=top;spacingLeft=4;spacingRight=4;overflow=hidden;rotatable=0;points=[[0,0.5],[1,0.5]];portConstraint=eastwest;fontColor=#FEFAE0;fontFamily=Lucida Console;rounded=1;" parent="14" vertex="1">
                    <mxGeometry y="78" width="180" height="26" as="geometry"/>
                </mxCell>
                <mxCell id="22" value="- pointers" style="text;strokeColor=none;fillColor=none;align=left;verticalAlign=top;spacingLeft=4;spacingRight=4;overflow=hidden;rotatable=0;points=[[0,0.5],[1,0.5]];portConstraint=eastwest;fontColor=#FEFAE0;fontFamily=Lucida Console;rounded=1;" parent="14" vertex="1">
                    <mxGeometry y="104" width="180" height="26" as="geometry"/>
                </mxCell>
                <mxCell id="18" value="- blockScale" style="text;strokeColor=none;fillColor=none;align=left;verticalAlign=top;spacingLeft=4;spacingRight=4;overflow=hidden;rotatable=0;points=[[0,0.5],[1,0.5]];portConstraint=eastwest;fontColor=#FEFAE0;fontFamily=Lucida Console;rounded=1;" parent="14" vertex="1">
                    <mxGeometry y="130" width="180" height="26" as="geometry"/>
                </mxCell>
                <mxCell id="19" value="- graphicsContext" style="text;strokeColor=none;fillColor=none;align=left;verticalAlign=top;spacingLeft=4;spacingRight=4;overflow=hidden;rotatable=0;points=[[0,0.5],[1,0.5]];portConstraint=eastwest;fontColor=#FEFAE0;fontFamily=Lucida Console;rounded=1;" parent="14" vertex="1">
                    <mxGeometry y="156" width="180" height="26" as="geometry"/>
                </mxCell>
                <mxCell id="20" value="- spawnPositions" style="text;strokeColor=none;fillColor=none;align=left;verticalAlign=top;spacingLeft=4;spacingRight=4;overflow=hidden;rotatable=0;points=[[0,0.5],[1,0.5]];portConstraint=eastwest;fontColor=#FEFAE0;fontFamily=Lucida Console;rounded=1;" parent="14" vertex="1">
                    <mxGeometry y="182" width="180" height="26" as="geometry"/>
                </mxCell>
                <mxCell id="21" value="- collisionChecker" style="text;strokeColor=none;fillColor=none;align=left;verticalAlign=top;spacingLeft=4;spacingRight=4;overflow=hidden;rotatable=0;points=[[0,0.5],[1,0.5]];portConstraint=eastwest;fontColor=#FEFAE0;fontFamily=Lucida Console;rounded=1;" parent="14" vertex="1">
                    <mxGeometry y="208" width="180" height="26" as="geometry"/>
                </mxCell>
                <mxCell id="29" value="" style="line;strokeWidth=2;html=1;shadow=0;glass=0;sketch=0;fontFamily=Comic Sans MS;fontColor=#FEFAE0;fillColor=none;align=center;rounded=1;labelBackgroundColor=#283618;strokeColor=#DDA15E;" parent="14" vertex="1">
                    <mxGeometry y="234" width="180" height="10" as="geometry"/>
                </mxCell>
                <mxCell id="23" value="- render()" style="text;strokeColor=none;fillColor=none;align=left;verticalAlign=top;spacingLeft=4;spacingRight=4;overflow=hidden;rotatable=0;points=[[0,0.5],[1,0.5]];portConstraint=eastwest;fontColor=#FEFAE0;fontFamily=Lucida Console;rounded=1;" parent="14" vertex="1">
                    <mxGeometry y="244" width="180" height="26" as="geometry"/>
                </mxCell>
                <mxCell id="30" value="+ getGraphicsContext()" style="text;strokeColor=none;fillColor=none;align=left;verticalAlign=top;spacingLeft=4;spacingRight=4;overflow=hidden;rotatable=0;points=[[0,0.5],[1,0.5]];portConstraint=eastwest;fontColor=#FEFAE0;fontFamily=Lucida Console;rounded=1;" parent="14" vertex="1">
                    <mxGeometry y="270" width="180" height="26" as="geometry"/>
                </mxCell>
                <mxCell id="31" value="+ updateObjectPos()" style="text;strokeColor=none;fillColor=none;align=left;verticalAlign=top;spacingLeft=4;spacingRight=4;overflow=hidden;rotatable=0;points=[[0,0.5],[1,0.5]];portConstraint=eastwest;fontColor=#FEFAE0;fontFamily=Lucida Console;rounded=1;" parent="14" vertex="1">
                    <mxGeometry y="296" width="180" height="26" as="geometry"/>
                </mxCell>
                <mxCell id="32" value="+ removeObject()" style="text;strokeColor=none;fillColor=none;align=left;verticalAlign=top;spacingLeft=4;spacingRight=4;overflow=hidden;rotatable=0;points=[[0,0.5],[1,0.5]];portConstraint=eastwest;fontColor=#FEFAE0;fontFamily=Lucida Console;rounded=1;" parent="14" vertex="1">
                    <mxGeometry y="322" width="180" height="26" as="geometry"/>
                </mxCell>
                <mxCell id="33" value="+ fill()" style="text;strokeColor=none;fillColor=none;align=left;verticalAlign=top;spacingLeft=4;spacingRight=4;overflow=hidden;rotatable=0;points=[[0,0.5],[1,0.5]];portConstraint=eastwest;fontColor=#FEFAE0;fontFamily=Lucida Console;rounded=1;" parent="14" vertex="1">
                    <mxGeometry y="348" width="180" height="26" as="geometry"/>
                </mxCell>
                <mxCell id="34" value="+ isBlock()" style="text;strokeColor=none;fillColor=none;align=left;verticalAlign=top;spacingLeft=4;spacingRight=4;overflow=hidden;rotatable=0;points=[[0,0.5],[1,0.5]];portConstraint=eastwest;fontColor=#FEFAE0;fontFamily=Lucida Console;rounded=1;" parent="14" vertex="1">
                    <mxGeometry y="374" width="180" height="26" as="geometry"/>
                </mxCell>
                <mxCell id="35" value="+ getData()" style="text;strokeColor=none;fillColor=none;align=left;verticalAlign=top;spacingLeft=4;spacingRight=4;overflow=hidden;rotatable=0;points=[[0,0.5],[1,0.5]];portConstraint=eastwest;fontColor=#FEFAE0;fontFamily=Lucida Console;rounded=1;" parent="14" vertex="1">
                    <mxGeometry y="400" width="180" height="26" as="geometry"/>
                </mxCell>
                <mxCell id="36" value="+ clearBlock()" style="text;strokeColor=none;fillColor=none;align=left;verticalAlign=top;spacingLeft=4;spacingRight=4;overflow=hidden;rotatable=0;points=[[0,0.5],[1,0.5]];portConstraint=eastwest;fontColor=#FEFAE0;fontFamily=Lucida Console;rounded=1;" parent="14" vertex="1">
                    <mxGeometry y="426" width="180" height="26" as="geometry"/>
                </mxCell>
                <mxCell id="42" value="+ gridToLayout()" style="text;strokeColor=none;fillColor=none;align=left;verticalAlign=top;spacingLeft=4;spacingRight=4;overflow=hidden;rotatable=0;points=[[0,0.5],[1,0.5]];portConstraint=eastwest;fontColor=#FEFAE0;fontFamily=Lucida Console;rounded=1;" parent="14" vertex="1">
                    <mxGeometry y="452" width="180" height="26" as="geometry"/>
                </mxCell>
                <mxCell id="37" value="+ layoutToGrid()" style="text;strokeColor=none;fillColor=none;align=left;verticalAlign=top;spacingLeft=4;spacingRight=4;overflow=hidden;rotatable=0;points=[[0,0.5],[1,0.5]];portConstraint=eastwest;fontColor=#FEFAE0;fontFamily=Lucida Console;rounded=1;" parent="14" vertex="1">
                    <mxGeometry y="478" width="180" height="26" as="geometry"/>
                </mxCell>
                <mxCell id="38" value="+ contains()" style="text;strokeColor=none;fillColor=none;align=left;verticalAlign=top;spacingLeft=4;spacingRight=4;overflow=hidden;rotatable=0;points=[[0,0.5],[1,0.5]];portConstraint=eastwest;fontColor=#FEFAE0;fontFamily=Lucida Console;rounded=1;" parent="14" vertex="1">
                    <mxGeometry y="504" width="180" height="26" as="geometry"/>
                </mxCell>
                <mxCell id="41" value="+ collect()" style="text;strokeColor=none;fillColor=none;align=left;verticalAlign=top;spacingLeft=4;spacingRight=4;overflow=hidden;rotatable=0;points=[[0,0.5],[1,0.5]];portConstraint=eastwest;fontColor=#FEFAE0;fontFamily=Lucida Console;rounded=1;" parent="14" vertex="1">
                    <mxGeometry y="530" width="180" height="26" as="geometry"/>
                </mxCell>
                <mxCell id="75" value="+ addObject()" style="text;strokeColor=none;fillColor=none;align=left;verticalAlign=top;spacingLeft=4;spacingRight=4;overflow=hidden;rotatable=0;points=[[0,0.5],[1,0.5]];portConstraint=eastwest;fontColor=#FEFAE0;fontFamily=Lucida Console;rounded=1;" parent="14" vertex="1">
                    <mxGeometry y="556" width="180" height="26" as="geometry"/>
                </mxCell>
                <mxCell id="76" value="+ getFreePoints()" style="text;strokeColor=none;fillColor=none;align=left;verticalAlign=top;spacingLeft=4;spacingRight=4;overflow=hidden;rotatable=0;points=[[0,0.5],[1,0.5]];portConstraint=eastwest;fontColor=#FEFAE0;fontFamily=Lucida Console;rounded=1;" parent="14" vertex="1">
                    <mxGeometry y="582" width="180" height="26" as="geometry"/>
                </mxCell>
                <mxCell id="77" value="+ startLoop()" style="text;strokeColor=none;fillColor=none;align=left;verticalAlign=top;spacingLeft=4;spacingRight=4;overflow=hidden;rotatable=0;points=[[0,0.5],[1,0.5]];portConstraint=eastwest;fontColor=#FEFAE0;fontFamily=Lucida Console;rounded=1;" parent="14" vertex="1">
                    <mxGeometry y="608" width="180" height="26" as="geometry"/>
                </mxCell>
                <mxCell id="78" value="+ stopLoop()" style="text;strokeColor=none;fillColor=none;align=left;verticalAlign=top;spacingLeft=4;spacingRight=4;overflow=hidden;rotatable=0;points=[[0,0.5],[1,0.5]];portConstraint=eastwest;fontColor=#FEFAE0;fontFamily=Lucida Console;rounded=1;" parent="14" vertex="1">
                    <mxGeometry y="634" width="180" height="26" as="geometry"/>
                </mxCell>
                <mxCell id="79" value="+ resetSpawnPositions()" style="text;strokeColor=none;fillColor=none;align=left;verticalAlign=top;spacingLeft=4;spacingRight=4;overflow=hidden;rotatable=0;points=[[0,0.5],[1,0.5]];portConstraint=eastwest;fontColor=#FEFAE0;fontFamily=Lucida Console;rounded=1;" parent="14" vertex="1">
                    <mxGeometry y="660" width="180" height="26" as="geometry"/>
                </mxCell>
                <mxCell id="43" value="javafx.scene.laout.Pane" style="swimlane;fontStyle=0;childLayout=stackLayout;horizontal=1;startSize=30;fillColor=none;horizontalStack=0;resizeParent=1;resizeParentMax=0;resizeLast=0;collapsible=1;marginBottom=0;strokeColor=#DDA15E;fontColor=#FEFAE0;fontFamily=Lucida Console;align=center;arcSize=0;rounded=1;" parent="1" vertex="1">
                    <mxGeometry x="410" y="10" width="180" height="30" as="geometry"/>
                </mxCell>
                <mxCell id="144" style="edgeStyle=orthogonalEdgeStyle;orthogonalLoop=1;jettySize=auto;html=1;entryX=0.5;entryY=1;entryDx=0;entryDy=0;labelBackgroundColor=#283618;strokeColor=#DDA15E;fontColor=#FEFAE0;" edge="1" parent="1" source="80" target="107">
                    <mxGeometry relative="1" as="geometry"/>
                </mxCell>
                <mxCell id="80" value="GameObject" style="swimlane;fontStyle=0;childLayout=stackLayout;horizontal=1;startSize=26;fillColor=none;horizontalStack=0;resizeParent=1;resizeParentMax=0;resizeLast=0;collapsible=1;marginBottom=0;strokeColor=#DDA15E;fontColor=#FEFAE0;fontFamily=Lucida Console;align=center;rounded=1;" parent="1" vertex="1">
                    <mxGeometry x="690" y="80" width="180" height="634" as="geometry"/>
                </mxCell>
                <mxCell id="81" value="- mask" style="text;strokeColor=none;fillColor=none;align=left;verticalAlign=top;spacingLeft=4;spacingRight=4;overflow=hidden;rotatable=0;points=[[0,0.5],[1,0.5]];portConstraint=eastwest;fontColor=#FEFAE0;fontFamily=Lucida Console;rounded=1;" parent="80" vertex="1">
                    <mxGeometry y="26" width="180" height="26" as="geometry"/>
                </mxCell>
                <mxCell id="82" value="- position" style="text;strokeColor=none;fillColor=none;align=left;verticalAlign=top;spacingLeft=4;spacingRight=4;overflow=hidden;rotatable=0;points=[[0,0.5],[1,0.5]];portConstraint=eastwest;fontColor=#FEFAE0;fontFamily=Lucida Console;rounded=1;" parent="80" vertex="1">
                    <mxGeometry y="52" width="180" height="26" as="geometry"/>
                </mxCell>
                <mxCell id="83" value="- direction" style="text;strokeColor=none;fillColor=none;align=left;verticalAlign=top;spacingLeft=4;spacingRight=4;overflow=hidden;rotatable=0;points=[[0,0.5],[1,0.5]];portConstraint=eastwest;fontColor=#FEFAE0;fontFamily=Lucida Console;rounded=1;" parent="80" vertex="1">
                    <mxGeometry y="78" width="180" height="26" as="geometry"/>
                </mxCell>
                <mxCell id="84" value="- width" style="text;strokeColor=none;fillColor=none;align=left;verticalAlign=top;spacingLeft=4;spacingRight=4;overflow=hidden;rotatable=0;points=[[0,0.5],[1,0.5]];portConstraint=eastwest;fontColor=#FEFAE0;fontFamily=Lucida Console;rounded=1;" parent="80" vertex="1">
                    <mxGeometry y="104" width="180" height="26" as="geometry"/>
                </mxCell>
                <mxCell id="85" value="- height" style="text;strokeColor=none;fillColor=none;align=left;verticalAlign=top;spacingLeft=4;spacingRight=4;overflow=hidden;rotatable=0;points=[[0,0.5],[1,0.5]];portConstraint=eastwest;fontColor=#FEFAE0;fontFamily=Lucida Console;rounded=1;" parent="80" vertex="1">
                    <mxGeometry y="130" width="180" height="26" as="geometry"/>
                </mxCell>
                <mxCell id="86" value="- map" style="text;strokeColor=none;fillColor=none;align=left;verticalAlign=top;spacingLeft=4;spacingRight=4;overflow=hidden;rotatable=0;points=[[0,0.5],[1,0.5]];portConstraint=eastwest;fontColor=#FEFAE0;fontFamily=Lucida Console;rounded=1;" parent="80" vertex="1">
                    <mxGeometry y="156" width="180" height="26" as="geometry"/>
                </mxCell>
                <mxCell id="87" value="- gridCode" style="text;strokeColor=none;fillColor=none;align=left;verticalAlign=top;spacingLeft=4;spacingRight=4;overflow=hidden;rotatable=0;points=[[0,0.5],[1,0.5]];portConstraint=eastwest;fontColor=#FEFAE0;fontFamily=Lucida Console;rounded=1;" parent="80" vertex="1">
                    <mxGeometry y="182" width="180" height="26" as="geometry"/>
                </mxCell>
                <mxCell id="89" value="" style="line;strokeWidth=2;html=1;shadow=0;glass=0;sketch=0;fontFamily=Comic Sans MS;fontColor=#FEFAE0;fillColor=none;align=center;rounded=1;labelBackgroundColor=#283618;strokeColor=#DDA15E;" parent="80" vertex="1">
                    <mxGeometry y="208" width="180" height="10" as="geometry"/>
                </mxCell>
                <mxCell id="90" value="+ getCurrentLayoutX()" style="text;strokeColor=none;fillColor=none;align=left;verticalAlign=top;spacingLeft=4;spacingRight=4;overflow=hidden;rotatable=0;points=[[0,0.5],[1,0.5]];portConstraint=eastwest;fontColor=#FEFAE0;fontFamily=Lucida Console;rounded=1;" parent="80" vertex="1">
                    <mxGeometry y="218" width="180" height="26" as="geometry"/>
                </mxCell>
                <mxCell id="91" value="+ getCurrentLayoutY()" style="text;strokeColor=none;fillColor=none;align=left;verticalAlign=top;spacingLeft=4;spacingRight=4;overflow=hidden;rotatable=0;points=[[0,0.5],[1,0.5]];portConstraint=eastwest;fontColor=#FEFAE0;fontFamily=Lucida Console;rounded=1;" parent="80" vertex="1">
                    <mxGeometry y="244" width="180" height="26" as="geometry"/>
                </mxCell>
                <mxCell id="92" value="+ getCenterPos()" style="text;strokeColor=none;fillColor=none;align=left;verticalAlign=top;spacingLeft=4;spacingRight=4;overflow=hidden;rotatable=0;points=[[0,0.5],[1,0.5]];portConstraint=eastwest;fontColor=#FEFAE0;fontFamily=Lucida Console;rounded=1;" parent="80" vertex="1">
                    <mxGeometry y="270" width="180" height="26" as="geometry"/>
                </mxCell>
                <mxCell id="93" value="+ getLayoutCenterX()" style="text;strokeColor=none;fillColor=none;align=left;verticalAlign=top;spacingLeft=4;spacingRight=4;overflow=hidden;rotatable=0;points=[[0,0.5],[1,0.5]];portConstraint=eastwest;fontColor=#FEFAE0;fontFamily=Lucida Console;rounded=1;" parent="80" vertex="1">
                    <mxGeometry y="296" width="180" height="26" as="geometry"/>
                </mxCell>
                <mxCell id="94" value="+ getLayoutCenterY()" style="text;strokeColor=none;fillColor=none;align=left;verticalAlign=top;spacingLeft=4;spacingRight=4;overflow=hidden;rotatable=0;points=[[0,0.5],[1,0.5]];portConstraint=eastwest;fontColor=#FEFAE0;fontFamily=Lucida Console;rounded=1;" parent="80" vertex="1">
                    <mxGeometry y="322" width="180" height="26" as="geometry"/>
                </mxCell>
                <mxCell id="95" value="+ getGridX()" style="text;strokeColor=none;fillColor=none;align=left;verticalAlign=top;spacingLeft=4;spacingRight=4;overflow=hidden;rotatable=0;points=[[0,0.5],[1,0.5]];portConstraint=eastwest;fontColor=#FEFAE0;fontFamily=Lucida Console;rounded=1;" parent="80" vertex="1">
                    <mxGeometry y="348" width="180" height="26" as="geometry"/>
                </mxCell>
                <mxCell id="96" value="+ getGridY()" style="text;strokeColor=none;fillColor=none;align=left;verticalAlign=top;spacingLeft=4;spacingRight=4;overflow=hidden;rotatable=0;points=[[0,0.5],[1,0.5]];portConstraint=eastwest;fontColor=#FEFAE0;fontFamily=Lucida Console;rounded=1;" parent="80" vertex="1">
                    <mxGeometry y="374" width="180" height="26" as="geometry"/>
                </mxCell>
                <mxCell id="97" value="+ getMap()" style="text;strokeColor=none;fillColor=none;align=left;verticalAlign=top;spacingLeft=4;spacingRight=4;overflow=hidden;rotatable=0;points=[[0,0.5],[1,0.5]];portConstraint=eastwest;fontColor=#FEFAE0;fontFamily=Lucida Console;rounded=1;" parent="80" vertex="1">
                    <mxGeometry y="400" width="180" height="26" as="geometry"/>
                </mxCell>
                <mxCell id="98" value="+ getGridCode()" style="text;strokeColor=none;fillColor=none;align=left;verticalAlign=top;spacingLeft=4;spacingRight=4;overflow=hidden;rotatable=0;points=[[0,0.5],[1,0.5]];portConstraint=eastwest;fontColor=#FEFAE0;fontFamily=Lucida Console;rounded=1;" parent="80" vertex="1">
                    <mxGeometry y="426" width="180" height="26" as="geometry"/>
                </mxCell>
                <mxCell id="99" value="+ move()" style="text;strokeColor=none;fillColor=none;align=left;verticalAlign=top;spacingLeft=4;spacingRight=4;overflow=hidden;rotatable=0;points=[[0,0.5],[1,0.5]];portConstraint=eastwest;fontColor=#FEFAE0;fontFamily=Lucida Console;rounded=1;" parent="80" vertex="1">
                    <mxGeometry y="452" width="180" height="26" as="geometry"/>
                </mxCell>
                <mxCell id="100" value="+ getDirection()" style="text;strokeColor=none;fillColor=none;align=left;verticalAlign=top;spacingLeft=4;spacingRight=4;overflow=hidden;rotatable=0;points=[[0,0.5],[1,0.5]];portConstraint=eastwest;fontColor=#FEFAE0;fontFamily=Lucida Console;rounded=1;" parent="80" vertex="1">
                    <mxGeometry y="478" width="180" height="26" as="geometry"/>
                </mxCell>
                <mxCell id="101" value="+ getPosition()" style="text;strokeColor=none;fillColor=none;align=left;verticalAlign=top;spacingLeft=4;spacingRight=4;overflow=hidden;rotatable=0;points=[[0,0.5],[1,0.5]];portConstraint=eastwest;fontColor=#FEFAE0;fontFamily=Lucida Console;rounded=1;" parent="80" vertex="1">
                    <mxGeometry y="504" width="180" height="26" as="geometry"/>
                </mxCell>
                <mxCell id="102" value="+ getMask()" style="text;strokeColor=none;fillColor=none;align=left;verticalAlign=top;spacingLeft=4;spacingRight=4;overflow=hidden;rotatable=0;points=[[0,0.5],[1,0.5]];portConstraint=eastwest;fontColor=#FEFAE0;fontFamily=Lucida Console;rounded=1;" parent="80" vertex="1">
                    <mxGeometry y="530" width="180" height="26" as="geometry"/>
                </mxCell>
                <mxCell id="103" value="+ setDirection()" style="text;strokeColor=none;fillColor=none;align=left;verticalAlign=top;spacingLeft=4;spacingRight=4;overflow=hidden;rotatable=0;points=[[0,0.5],[1,0.5]];portConstraint=eastwest;fontColor=#FEFAE0;fontFamily=Lucida Console;rounded=1;" parent="80" vertex="1">
                    <mxGeometry y="556" width="180" height="26" as="geometry"/>
                </mxCell>
                <mxCell id="104" value="+ onCollision()" style="text;strokeColor=none;fillColor=none;align=left;verticalAlign=top;spacingLeft=4;spacingRight=4;overflow=hidden;rotatable=0;points=[[0,0.5],[1,0.5]];portConstraint=eastwest;fontColor=#FEFAE0;fontFamily=Lucida Console;rounded=1;" parent="80" vertex="1">
                    <mxGeometry y="582" width="180" height="26" as="geometry"/>
                </mxCell>
                <mxCell id="105" value="+ update()" style="text;strokeColor=none;fillColor=none;align=left;verticalAlign=top;spacingLeft=4;spacingRight=4;overflow=hidden;rotatable=0;points=[[0,0.5],[1,0.5]];portConstraint=eastwest;fontColor=#FEFAE0;fontFamily=Lucida Console;rounded=1;" parent="80" vertex="1">
                    <mxGeometry y="608" width="180" height="26" as="geometry"/>
                </mxCell>
                <mxCell id="107" value="javafx.scene.Parent" style="swimlane;fontStyle=0;childLayout=stackLayout;horizontal=1;startSize=30;fillColor=none;horizontalStack=0;resizeParent=1;resizeParentMax=0;resizeLast=0;collapsible=1;marginBottom=0;strokeColor=#DDA15E;fontColor=#FEFAE0;fontFamily=Lucida Console;align=center;arcSize=0;rounded=1;" parent="1" vertex="1">
                    <mxGeometry x="690" y="10" width="180" height="30" as="geometry"/>
                </mxCell>
                <mxCell id="149" style="edgeStyle=orthogonalEdgeStyle;curved=0;rounded=1;sketch=0;orthogonalLoop=1;jettySize=auto;html=1;entryX=1;entryY=0.5;entryDx=0;entryDy=0;fontColor=#FEFAE0;endArrow=diamondThin;endFill=1;startSize=10;endSize=10;strokeColor=#DDA15E;fillColor=#BC6C25;" edge="1" parent="1" source="108" target="83">
                    <mxGeometry relative="1" as="geometry">
                        <Array as="points">
                            <mxPoint x="910" y="360"/>
                            <mxPoint x="910" y="171"/>
                        </Array>
                    </mxGeometry>
                </mxCell>
                <mxCell id="108" value="Vector" style="swimlane;fontStyle=0;childLayout=stackLayout;horizontal=1;startSize=26;fillColor=none;horizontalStack=0;resizeParent=1;resizeParentMax=0;resizeLast=0;collapsible=1;marginBottom=0;strokeColor=#DDA15E;fontColor=#FEFAE0;fontFamily=Lucida Console;align=center;rounded=1;" parent="1" vertex="1">
                    <mxGeometry x="950" y="350" width="180" height="244" as="geometry"/>
                </mxCell>
                <mxCell id="109" value="- x" style="text;strokeColor=none;fillColor=none;align=left;verticalAlign=top;spacingLeft=4;spacingRight=4;overflow=hidden;rotatable=0;points=[[0,0.5],[1,0.5]];portConstraint=eastwest;fontColor=#FEFAE0;fontFamily=Lucida Console;rounded=1;" parent="108" vertex="1">
                    <mxGeometry y="26" width="180" height="26" as="geometry"/>
                </mxCell>
                <mxCell id="110" value="- y" style="text;strokeColor=none;fillColor=none;align=left;verticalAlign=top;spacingLeft=4;spacingRight=4;overflow=hidden;rotatable=0;points=[[0,0.5],[1,0.5]];portConstraint=eastwest;fontColor=#FEFAE0;fontFamily=Lucida Console;rounded=1;" parent="108" vertex="1">
                    <mxGeometry y="52" width="180" height="26" as="geometry"/>
                </mxCell>
                <mxCell id="116" value="" style="line;strokeWidth=2;html=1;shadow=0;glass=0;sketch=0;fontFamily=Comic Sans MS;fontColor=#FEFAE0;fillColor=none;align=center;rounded=1;labelBackgroundColor=#283618;strokeColor=#DDA15E;" parent="108" vertex="1">
                    <mxGeometry y="78" width="180" height="10" as="geometry"/>
                </mxCell>
                <mxCell id="117" value="+ getRotation()" style="text;strokeColor=none;fillColor=none;align=left;verticalAlign=top;spacingLeft=4;spacingRight=4;overflow=hidden;rotatable=0;points=[[0,0.5],[1,0.5]];portConstraint=eastwest;fontColor=#FEFAE0;fontFamily=Lucida Console;rounded=1;" parent="108" vertex="1">
                    <mxGeometry y="88" width="180" height="26" as="geometry"/>
                </mxCell>
                <mxCell id="118" value="+ getXPair()" style="text;strokeColor=none;fillColor=none;align=left;verticalAlign=top;spacingLeft=4;spacingRight=4;overflow=hidden;rotatable=0;points=[[0,0.5],[1,0.5]];portConstraint=eastwest;fontColor=#FEFAE0;fontFamily=Lucida Console;rounded=1;" parent="108" vertex="1">
                    <mxGeometry y="114" width="180" height="26" as="geometry"/>
                </mxCell>
                <mxCell id="119" value="+ getYPair()" style="text;strokeColor=none;fillColor=none;align=left;verticalAlign=top;spacingLeft=4;spacingRight=4;overflow=hidden;rotatable=0;points=[[0,0.5],[1,0.5]];portConstraint=eastwest;fontColor=#FEFAE0;fontFamily=Lucida Console;rounded=1;" parent="108" vertex="1">
                    <mxGeometry y="140" width="180" height="26" as="geometry"/>
                </mxCell>
                <mxCell id="120" value="+ multiply()" style="text;strokeColor=none;fillColor=none;align=left;verticalAlign=top;spacingLeft=4;spacingRight=4;overflow=hidden;rotatable=0;points=[[0,0.5],[1,0.5]];portConstraint=eastwest;fontColor=#FEFAE0;fontFamily=Lucida Console;rounded=1;" parent="108" vertex="1">
                    <mxGeometry y="166" width="180" height="26" as="geometry"/>
                </mxCell>
                <mxCell id="121" value="+ getDirection()" style="text;strokeColor=none;fillColor=none;align=left;verticalAlign=top;spacingLeft=4;spacingRight=4;overflow=hidden;rotatable=0;points=[[0,0.5],[1,0.5]];portConstraint=eastwest;fontColor=#FEFAE0;fontFamily=Lucida Console;rounded=1;" parent="108" vertex="1">
                    <mxGeometry y="192" width="180" height="26" as="geometry"/>
                </mxCell>
                <mxCell id="122" value="+ length()" style="text;strokeColor=none;fillColor=none;align=left;verticalAlign=top;spacingLeft=4;spacingRight=4;overflow=hidden;rotatable=0;points=[[0,0.5],[1,0.5]];portConstraint=eastwest;fontColor=#FEFAE0;fontFamily=Lucida Console;rounded=1;" parent="108" vertex="1">
                    <mxGeometry y="218" width="180" height="26" as="geometry"/>
                </mxCell>
                <mxCell id="148" style="edgeStyle=orthogonalEdgeStyle;curved=0;rounded=1;sketch=0;orthogonalLoop=1;jettySize=auto;html=1;entryX=1;entryY=0.5;entryDx=0;entryDy=0;fontColor=#FEFAE0;endArrow=diamondThin;endFill=1;startSize=10;endSize=10;strokeColor=#DDA15E;fillColor=#BC6C25;" edge="1" parent="1" source="133" target="82">
                    <mxGeometry relative="1" as="geometry">
                        <Array as="points">
                            <mxPoint x="910" y="90"/>
                            <mxPoint x="910" y="145"/>
                        </Array>
                    </mxGeometry>
                </mxCell>
                <mxCell id="133" value="Position" style="swimlane;fontStyle=0;childLayout=stackLayout;horizontal=1;startSize=26;fillColor=none;horizontalStack=0;resizeParent=1;resizeParentMax=0;resizeLast=0;collapsible=1;marginBottom=0;strokeColor=#DDA15E;fontColor=#FEFAE0;fontFamily=Lucida Console;align=center;rounded=1;" parent="1" vertex="1">
                    <mxGeometry x="950" y="80" width="180" height="244" as="geometry"/>
                </mxCell>
                <mxCell id="134" value="- x" style="text;strokeColor=none;fillColor=none;align=left;verticalAlign=top;spacingLeft=4;spacingRight=4;overflow=hidden;rotatable=0;points=[[0,0.5],[1,0.5]];portConstraint=eastwest;fontColor=#FEFAE0;fontFamily=Lucida Console;rounded=1;" parent="133" vertex="1">
                    <mxGeometry y="26" width="180" height="26" as="geometry"/>
                </mxCell>
                <mxCell id="135" value="- y" style="text;strokeColor=none;fillColor=none;align=left;verticalAlign=top;spacingLeft=4;spacingRight=4;overflow=hidden;rotatable=0;points=[[0,0.5],[1,0.5]];portConstraint=eastwest;fontColor=#FEFAE0;fontFamily=Lucida Console;rounded=1;" parent="133" vertex="1">
                    <mxGeometry y="52" width="180" height="26" as="geometry"/>
                </mxCell>
                <mxCell id="143" value="- xListeners" style="text;strokeColor=none;fillColor=none;align=left;verticalAlign=top;spacingLeft=4;spacingRight=4;overflow=hidden;rotatable=0;points=[[0,0.5],[1,0.5]];portConstraint=eastwest;fontColor=#FEFAE0;fontFamily=Lucida Console;rounded=1;" parent="133" vertex="1">
                    <mxGeometry y="78" width="180" height="26" as="geometry"/>
                </mxCell>
                <mxCell id="137" value="- yListeners" style="text;strokeColor=none;fillColor=none;align=left;verticalAlign=top;spacingLeft=4;spacingRight=4;overflow=hidden;rotatable=0;points=[[0,0.5],[1,0.5]];portConstraint=eastwest;fontColor=#FEFAE0;fontFamily=Lucida Console;rounded=1;" parent="133" vertex="1">
                    <mxGeometry y="104" width="180" height="26" as="geometry"/>
                </mxCell>
                <mxCell id="136" value="" style="line;strokeWidth=2;html=1;shadow=0;glass=0;sketch=0;fontFamily=Comic Sans MS;fontColor=#FEFAE0;fillColor=none;align=center;rounded=1;labelBackgroundColor=#283618;strokeColor=#DDA15E;" parent="133" vertex="1">
                    <mxGeometry y="130" width="180" height="10" as="geometry"/>
                </mxCell>
                <mxCell id="138" value="+ sum()" style="text;strokeColor=none;fillColor=none;align=left;verticalAlign=top;spacingLeft=4;spacingRight=4;overflow=hidden;rotatable=0;points=[[0,0.5],[1,0.5]];portConstraint=eastwest;fontColor=#FEFAE0;fontFamily=Lucida Console;rounded=1;" parent="133" vertex="1">
                    <mxGeometry y="140" width="180" height="26" as="geometry"/>
                </mxCell>
                <mxCell id="139" value="+ move()" style="text;strokeColor=none;fillColor=none;align=left;verticalAlign=top;spacingLeft=4;spacingRight=4;overflow=hidden;rotatable=0;points=[[0,0.5],[1,0.5]];portConstraint=eastwest;fontColor=#FEFAE0;fontFamily=Lucida Console;rounded=1;" parent="133" vertex="1">
                    <mxGeometry y="166" width="180" height="26" as="geometry"/>
                </mxCell>
                <mxCell id="140" value="+ addXListener()" style="text;strokeColor=none;fillColor=none;align=left;verticalAlign=top;spacingLeft=4;spacingRight=4;overflow=hidden;rotatable=0;points=[[0,0.5],[1,0.5]];portConstraint=eastwest;fontColor=#FEFAE0;fontFamily=Lucida Console;rounded=1;" parent="133" vertex="1">
                    <mxGeometry y="192" width="180" height="26" as="geometry"/>
                </mxCell>
                <mxCell id="141" value="+ addYListener()" style="text;strokeColor=none;fillColor=none;align=left;verticalAlign=top;spacingLeft=4;spacingRight=4;overflow=hidden;rotatable=0;points=[[0,0.5],[1,0.5]];portConstraint=eastwest;fontColor=#FEFAE0;fontFamily=Lucida Console;rounded=1;" parent="133" vertex="1">
                    <mxGeometry y="218" width="180" height="26" as="geometry"/>
                </mxCell>
            </root>
        </mxGraphModel>
    </diagram>
</mxfile>